<svg xmlns="http://www.w3.org/2000/svg" viewBox="0 0 24 24" aria-hidden="true">
  <path fill="#F7F4EA" d="M12.04 2a9.94 9.94 0 0 0-8.5 15.1L2.2 22l5.03-1.32A9.94 9.94 0 1 0 12.04 2Zm0 18.18a8.22 8.22 0 0 1-4.19-1.15l-.3-.18-2.98.78.8-2.9-.2-.31a8.22 8.22 0 1 1 6.87 3.76Zm4.5-6.16c-.25-.13-1.47-.73-1.7-.81-.22-.08-.39-.13-.55.13-.16.24-.64.8-.78.96-.14.17-.29.19-.54.07-.25-.13-1.05-.39-2-1.23-.74-.66-1.24-1.47-1.38-1.72-.14-.25-.02-.38.11-.51.11-.11.25-.29.37-.43.12-.15.17-.25.25-.42.08-.16.04-.31-.02-.43-.06-.13-.55-1.34-.76-1.84-.2-.48-.4-.41-.55-.42h-.47c-.17 0-.43.06-.66.31-.23.25-.87.85-.87 2.07 0 1.22.9 2.4 1.02 2.57.13.16 1.76 2.68 4.26 3.76.6.26 1.06.41 1.42.53.6.19 1.14.16 1.57.1.48-.08 1.47-.6 1.68-1.18.21-.58.21-1.08.15-1.18-.07-.1-.23-.16-.48-.29Z"/>
</svg>
